<svg data-name="Layer 1" xmlns="http://www.w3.org/2000/svg" viewBox="0 0 1139.38 240.33"><path d="M0 11.58h110.26v21.71h-87.1v50.92h81.1v21.71h-81.1v54.78h91.45v21.71H0zm173.26 109.79L132.7 68.04h28l27.75 40.54 27.27-40.54h26.3l-39.09 53.33 46.33 61h-28l-33.78-48-33.78 48h-26.79zM348.9 98.44a45.49 45.49 0 0 0-12.64-9.53 35.52 35.52 0 0 0-15.8-3.25 34.94 34.94 0 0 0-15.56 3.25 31.59 31.59 0 0 0-11.1 8.93 40.17 40.17 0 0 0-6.76 13 51.16 51.16 0 0 0-2.29 15.32 42.76 42.76 0 0 0 2.65 15.08 37.93 37.93 0 0 0 7.48 12.43 34.3 34.3 0 0 0 11.58 8.32 36.78 36.78 0 0 0 15.21 3 34.75 34.75 0 0 0 15.68-3.26 40.06 40.06 0 0 0 12.06-9.53l15.45 15.44a48.69 48.69 0 0 1-19.67 13.52 68.77 68.77 0 0 1-23.77 4.1 65.52 65.52 0 0 1-24.25-4.34 56.06 56.06 0 0 1-18.94-12.19 53.66 53.66 0 0 1-12.3-18.82 65.28 65.28 0 0 1-4.35-24.25 66.26 66.26 0 0 1 4.35-24.37 54.37 54.37 0 0 1 31-31.49 64.58 64.58 0 0 1 24.49-4.46 65.68 65.68 0 0 1 24 4.46 52.89 52.89 0 0 1 19.91 13.63zM383.4 0h21.72v85.66h.48q4.11-9.18 14.24-14.84a47.15 47.15 0 0 1 23.42-5.67 49.64 49.64 0 0 1 15.8 2.53 35.63 35.63 0 0 1 13.27 7.84 37.91 37.91 0 0 1 9.05 13.63 52.2 52.2 0 0 1 3.38 19.67v73.59h-21.73v-67.56a38.1 38.1 0 0 0-2.17-13.63 25 25 0 0 0-5.79-9.12 21.8 21.8 0 0 0-8.33-5.07 30.8 30.8 0 0 0-9.77-1.57 35.43 35.43 0 0 0-12.55 2.18 26.14 26.14 0 0 0-10.16 6.82 32.44 32.44 0 0 0-6.76 12 54.25 54.25 0 0 0-2.41 17.13v58.87H383.4zm134.65 82.04a60.29 60.29 0 0 1 21.21-12.67 72.72 72.72 0 0 1 24.13-4.22q12.54 0 21.59 3.13a41.89 41.89 0 0 1 14.84 8.45 33.38 33.38 0 0 1 8.57 12.18 38.07 38.07 0 0 1 2.77 14.36v58.39q0 6 .25 11.1c.15 3.38.4 6.6.72 9.65h-19.3q-.74-8.69-.73-17.37h-.48q-7.25 11.1-17.13 15.68a54 54 0 0 1-22.92 4.59 52.62 52.62 0 0 1-15.19-2.21 37.09 37.09 0 0 1-12.66-6.52 31 31 0 0 1-8.57-10.73 33.34 33.34 0 0 1-3.14-14.75q0-11.1 5-18.58a37.48 37.48 0 0 1 13.51-12.19 65.23 65.23 0 0 1 20-6.76 139.69 139.69 0 0 1 24.49-2h15.93v-4.82a24 24 0 0 0-1.68-8.79 23.58 23.58 0 0 0-5.1-7.86 24.24 24.24 0 0 0-8.44-5.55 32.09 32.09 0 0 0-12.07-2 44.76 44.76 0 0 0-11 1.2 48.5 48.5 0 0 0-8.56 3 38 38 0 0 0-7 4.22q-3.14 2.42-6 4.59zm61.28 45.36a152.78 152.78 0 0 0-15.8.84 62 62 0 0 0-14.72 3.26 28.28 28.28 0 0 0-10.86 6.76 15.27 15.27 0 0 0-4.22 11.1q0 9.88 6.64 14.23t18 4.35a34.85 34.85 0 0 0 15.2-3 28.62 28.62 0 0 0 10.11-7.84 30.56 30.56 0 0 0 5.58-10.76 42.66 42.66 0 0 0 1.69-11.7v-7.24zm63.46-59.36h21.72v17.62h.48q4.1-9.18 14.24-14.84a47.08 47.08 0 0 1 23.4-5.67 49.66 49.66 0 0 1 15.81 2.53 35.63 35.63 0 0 1 13.27 7.84 37.91 37.91 0 0 1 9 13.63 52.2 52.2 0 0 1 3.38 19.67v73.59h-21.67v-67.56a38.1 38.1 0 0 0-2.16-13.63 25 25 0 0 0-5.8-9.12 21.87 21.87 0 0 0-8.33-5.07 30.8 30.8 0 0 0-9.77-1.57 35.39 35.39 0 0 0-12.55 2.18 26.06 26.06 0 0 0-10.13 6.87 32.44 32.44 0 0 0-6.76 12 54.25 54.25 0 0 0-2.41 17.13v58.87h-21.72zm248.77 113.41a61.27 61.27 0 0 1-4.46 23.77 54.29 54.29 0 0 1-12.67 18.58 57.57 57.57 0 0 1-19.78 12.18 72.24 72.24 0 0 1-25.58 4.34 94 94 0 0 1-30-4.58q-13.63-4.59-25.94-15.93l14.72-18.33a60.15 60.15 0 0 0 18.34 13.87 51.54 51.54 0 0 0 22.4 4.75q12.06 0 20-3.5a34.41 34.41 0 0 0 12.67-9.09 32.55 32.55 0 0 0 6.64-12.67 54.94 54.94 0 0 0 1.93-14.36v-16.89h-.73a38.11 38.11 0 0 1-17 15.32 53.28 53.28 0 0 1-22.56 4.95 59.94 59.94 0 0 1-23.28-4.46 55.49 55.49 0 0 1-18.45-12.3 56.13 56.13 0 0 1-12.07-18.58 61.58 61.58 0 0 1-4.34-23.28 66.82 66.82 0 0 1 4.1-23.53 57.56 57.56 0 0 1 11.76-19.19 53 53 0 0 1 18.33-12.79 60.67 60.67 0 0 1 24-4.58 53.26 53.26 0 0 1 22.56 5.06 41.48 41.48 0 0 1 17.26 14.24h.48V68.04h21.67zm-59.3-96.04a39.3 39.3 0 0 0-15.69 3 34.79 34.79 0 0 0-11.82 8.2 36.33 36.33 0 0 0-7.49 12.57 47 47 0 0 0-2.65 16q0 17.37 10.13 27.87t27.52 10.54q17.37 0 27.5-10.49t10.14-27.87a47 47 0 0 0-2.66-16 36.33 36.33 0 0 0-7.48-12.55 34.79 34.79 0 0 0-11.82-8.2 39.26 39.26 0 0 0-15.68-3.07zm108.53 47.78a28.67 28.67 0 0 0 3.25 13.63 34 34 0 0 0 8.57 10.5 39.76 39.76 0 0 0 12.31 6.78 44.29 44.29 0 0 0 14.47 2.41 32.38 32.38 0 0 0 17.62-4.71 56.56 56.56 0 0 0 13.75-12.42l16.41 12.54q-18.11 23.41-50.67 23.41a62.87 62.87 0 0 1-24.49-4.59 53 53 0 0 1-18.58-12.64 56.18 56.18 0 0 1-11.71-19.07 67.38 67.38 0 0 1-4.1-23.76 62.43 62.43 0 0 1 4.47-23.77 58.78 58.78 0 0 1 12.3-19.06 56.21 56.21 0 0 1 18.7-12.67 60.29 60.29 0 0 1 23.65-4.58q15.19 0 25.7 5.3a50.94 50.94 0 0 1 17.25 13.88 54.85 54.85 0 0 1 9.77 19.3 80.44 80.44 0 0 1 3 21.84v7.72zm68.52-17.37a45.64 45.64 0 0 0-2.29-13.27 29.36 29.36 0 0 0-6.15-10.5 28.43 28.43 0 0 0-10.26-7 37.49 37.49 0 0 0-14.35-2.53 35 35 0 0 0-14.6 3 35.54 35.54 0 0 0-11.22 7.85 36.19 36.19 0 0 0-7.12 10.73 29.58 29.58 0 0 0-2.53 11.71zm110.03-19.07a33.31 33.31 0 0 0-9.53-8.08 27.48 27.48 0 0 0-13.87-3.26 26.41 26.41 0 0 0-13.39 3.26 10.37 10.37 0 0 0-5.67 9.53 10.88 10.88 0 0 0 3.25 8.21 25.65 25.65 0 0 0 7.72 5.06 45.11 45.11 0 0 0 9.53 2.9c3.38.64 6.28 1.21 8.69 1.69a100.79 100.79 0 0 1 13.15 4.1 36.55 36.55 0 0 1 10.62 6.27 27.45 27.45 0 0 1 7 9.41 32.47 32.47 0 0 1 2.53 13.52 31.77 31.77 0 0 1-4.1 16.53 34.64 34.64 0 0 1-10.62 11.21 44.63 44.63 0 0 1-14.84 6.28 74.4 74.4 0 0 1-16.77 1.93q-14.23 0-25-4.34t-19.19-15.93l16.41-13.51a67.13 67.13 0 0 0 11.83 9.41q6.51 4.11 15.92 4.1a42.64 42.64 0 0 0 8.33-.84 25.82 25.82 0 0 0 7.48-2.66 16.2 16.2 0 0 0 5.3-4.58 10.47 10.47 0 0 0 2.06-6.4 11 11 0 0 0-3-8 22 22 0 0 0-7.24-4.95 52.69 52.69 0 0 0-8.93-2.89c-3.13-.73-5.91-1.33-8.32-1.81q-7-1.69-13.27-3.86a40.27 40.27 0 0 1-11.1-5.79 26.78 26.78 0 0 1-7.72-9.17 29.53 29.53 0 0 1-2.9-13.76 31.22 31.22 0 0 1 3.74-15.56 33.3 33.3 0 0 1 9.89-11 45 45 0 0 1 14-6.51 58.85 58.85 0 0 1 15.8-2.17 58 58 0 0 1 22.2 4.34 35.09 35.09 0 0 1 16.93 14.54z" fill="#fff"/></svg>